<svg xmlns="http://www.w3.org/2000/svg" width="600" height="445.554" viewBox="0 0 600 445.554"><path d="M0 244.422s29.928 8.658 78.546-9.324v-19.314S47.994 229.77 0 225.774v18.648z" fill="#be2635"/><path d="M25.808 187.605v15.525C279.429 205.128 530.76 55.944 530.76 55.944L550.074 0C350.94 175.824 25.808 187.605 25.808 187.605zM0 271.062v4.662c256.452-19.98 463.494 169.83 463.494 169.83l-57.942-107.892C169.122 226.44 0 271.062 0 271.062z" fill="#d1e2ea"/><path d="M78.546 283.55s26.973.5 38.462 5.994v14.485s-21.978-6.993-38.462-4.495V283.55z" fill="#cad425"/><path d="M100.107 165.23c-1.445.129-2.89.258-4.31.36-28.155 2.401-48.208 2.065-48.208 2.065s-.516-18.968-3.51-21.962c0 0 32.776 0 46.764-1.497a51.06 51.06 0 0 0 3.69-.516l5.574 21.55z" fill="#02abd4"/><path d="M168.446 154.184c-23.691 5.833-47.873 9.162-68.339 11.046l-5.574-21.55c-.98.181-2.245.362-3.69.516l-5.317-22.994c43.976-1.987 71.952-19.64 71.952-19.64-1.497 5.343 10.968 52.622 10.968 52.622z" fill="#f3971a"/><path d="M238.875 122.699s-49.447 5.006-54.944 8l-13.472-44.44s41.963 1.496 55.95 0c0 0 .517 2.142 1.369 5.419 1.16 4.439 2.916 10.943 4.8 16.852 2.245 7.226 4.645 13.55 6.297 14.169z" fill="#b3b4b6"/><path d="M336.298 82.18s-27.51 26.247-103.72 26.35c-1.884-5.91-3.64-12.413-4.8-16.852 16.155 1.394 72.854 4.336 100.52-19.923l8 10.426z" fill="#ffcd00"/><path d="M385.746 86.258s-34.97 29.447-89.424 36.957l-2.503-12.491s71.436-13.497 87.926-41.473l4 17.007z" fill="#e1007e"/><path d="M420.199 182.65h-16.465c-1.91-.542-5.6-13.756-8.543-25.679 7.407 0 19.278-1.29 19.278-1.29-.387.774-.18 2.993.31 5.832 1.471 8.027 5.42 21.137 5.42 21.137z" fill="#009342"/><path d="M424.199 159.681s-4.93 1.265-9.42 1.832c-.49-2.839-.697-5.058-.31-5.832 0 0-11.871 1.29-19.278 1.29-2.503-10.013-4.464-19.097-4.464-19.097s18.478-2.684 25.988-7.175c0 0 4.98 26.969 7.484 28.982z" fill="#a7d9e4"/><path d="M173.84 201.18c-2.22-.052-4.594.025-7.123.206-1.497.13-3.02.206-4.568.206h-9.29v3.588l5.29.826v46.04h7.82v-18.813c.567.051 1.445.077 2.606.129 1.161.051 2.374.077 3.639.077 3.897 0 7.33-.723 10.323-2.116 2.968-1.394 5.29-3.433 6.942-6.117 1.652-2.658 2.478-5.832 2.478-9.497 0-4.903-1.342-8.542-4.052-10.942-2.736-2.4-7.407-3.587-14.065-3.587zm6.787 25.265c-2.168 2.168-4.98 3.252-8.413 3.252-2.942 0-5.058-.103-6.323-.336v-24.104c.361 0 1.006-.051 1.91-.155 1.522-.155 2.993-.258 4.413-.258 3.974 0 6.916.852 8.826 2.581 1.884 1.73 2.839 4.516 2.839 8.362 0 4.929-1.084 8.465-3.252 10.658zm40.26-11.587c-1.884-.878-4.465-1.317-7.742-1.317-2.065 0-4.207.31-6.375.955-2.168.62-4.077 1.342-5.703 2.168-1.626.8-2.736 1.471-3.33 1.961l1.833 3.665c1.91-.955 3.768-1.729 5.6-2.374s3.897-.955 6.22-.955c2.039 0 3.587.284 4.697.852 1.084.567 1.832 1.445 2.27 2.658.414 1.187.646 2.839.646 4.929v1.755c-6.658.077-12.078 1.161-16.233 3.226-4.18 2.064-6.245 5.213-6.245 9.471 0 3.536 1.058 6.246 3.226 8.104 2.142 1.884 4.851 2.839 8.103 2.839 2.503 0 4.723-.568 6.684-1.704 1.988-1.135 3.613-2.374 4.93-3.742v2.168c0 1.368.232 2.245.722 2.633.465.387 1.368.567 2.684.567.98 0 2.116-.077 3.38-.284v-25.446c0-3.303-.412-5.936-1.238-7.897-.852-1.936-2.22-3.355-4.129-4.232zm-1.884 29.575a19.546 19.546 0 0 1-4.026 2.478c-1.471.696-2.761 1.058-3.871 1.058-1.987 0-3.562-.594-4.749-1.73-1.161-1.16-1.755-2.916-1.755-5.264 0-2.452 1.213-4.413 3.64-5.884 2.4-1.471 5.987-2.194 10.76-2.194v11.536zm47.796-30.892l-10.659.878v3.123l4.826 1.083v25.602c-1.084.954-2.4 1.806-3.948 2.555-1.549.748-3.2 1.11-4.956 1.11-1.755 0-3.122-.336-4.103-1.007-.98-.697-1.652-1.73-2.013-3.175-.361-1.419-.542-3.406-.542-5.935V214.34l-1.342-.8h-.077l-9.859.878v3.123l3.742 1.083v19.563c0 5.213.904 8.93 2.684 11.2 1.781 2.271 4.775 3.407 9.007 3.407 2.297 0 4.568-.568 6.813-1.704 2.246-1.135 4.078-2.451 5.472-3.948v2.245c0 1.187.31 2.039.903 2.555.62.516 1.574.774 2.89.774 1.084 0 2.039-.077 2.865-.206v-38.17l-1.574-.8h-.13zm21.652-17.11l-11.278 1.29v3.123l5.446.671v50.531h7.535v-54.531l-1.548-1.084h-.155zm101.286 6.342c3.19-2.694 5.283-4.834 6.28-6.42l-5.09-4.48-11.14 13.582 2.717 2.376c1.633-.68 4.042-2.366 7.233-5.058zm-5.398 50.011c2.716 0 5.388-.51 8.014-1.527 2.621-1.018 4.572-2.208 5.837-3.564l-1.426-3.057c-1.084.862-2.601 1.608-4.547 2.24-1.95.636-3.826.953-5.635.953-3.58 0-6.341-1.325-8.287-3.974-1.946-2.648-2.964-6.191-3.055-10.627h23.086c.318-1.45.474-3.554.474-6.316-.131-4.39-1.381-7.752-3.73-10.083-2.36-2.332-5.66-3.499-9.915-3.499-3.488 0-6.578.817-9.27 2.445-2.696 1.63-4.798 3.94-6.315 6.926-1.517 2.989-2.276 6.452-2.276 10.39 0 5.976 1.45 10.754 4.347 14.33 2.896 3.576 7.128 5.363 12.698 5.363zm-6.518-32.73c1.492-1.857 3.529-2.784 6.11-2.784 2.49 0 4.314.826 5.468 2.477 1.155 1.653 1.73 3.952 1.73 6.893 0 .68-.046 1.653-.137 2.921H375.24c.227-4.484 1.084-7.652 2.581-9.506zm51.9.972c.723.206 1.24.464 1.6.722v-8.078a7.772 7.772 0 0 0-2.244-.335c-2.168 0-4.181.516-6.04 1.523-1.858 1.032-3.354 2.167-4.542 3.432-1.187 1.265-1.96 2.271-2.374 3.045h-.129l.13-5.368v-1.29l-1.498-1.213h-.129l-9.652 1.213v3.871l4.826 1.239v32.26h7.536V224.07c3.02-2.22 6.4-3.33 10.117-3.33.903 0 1.703.104 2.4.285zm33.19 28.362c0 1.187.309 2.039.902 2.555.62.516 1.575.774 2.891.774 1.084 0 2.039-.077 2.865-.206v-38.17l-1.575-.8h-.129l-10.658.878v3.123l4.826 1.083v25.602c-1.084.954-2.4 1.806-3.949 2.555-1.548.748-3.2 1.11-4.955 1.11s-3.148-.336-4.103-1.007c-.981-.697-1.652-1.73-2.013-3.175-.362-1.419-.542-3.406-.542-5.935V214.34l-1.368-.8h-.052l-9.858.878v3.123l3.742 1.083v19.563c0 5.213.903 8.93 2.684 11.2 1.78 2.271 4.774 3.407 9.007 3.407 2.297 0 4.568-.568 6.813-1.704 2.245-1.135 4.052-2.451 5.471-3.948v2.245zm29.734 3.396c4.617 0 8.226-1.006 10.832-3.022 2.6-2.013 3.904-4.695 3.904-8.046 0-2.127-.535-3.926-1.596-5.398a12.779 12.779 0 0 0-4.007-3.6c-1.608-.927-3.657-1.89-6.144-2.887l-1.29-.542c-1.722-.678-3.08-1.3-4.076-1.868a7.901 7.901 0 0 1-2.477-2.172c-.658-.882-.986-1.981-.986-3.294 0-1.45.61-2.624 1.832-3.531 1.223-.905 2.83-1.359 4.822-1.359 1.404 0 2.671.195 3.803.578 1.131.385 1.857.849 2.172 1.39l1.359 5.026h4.347v-8.488a4.519 4.519 0 0 1-.713-.202c-.25-.09-.51-.158-.781-.204-1.495-.499-3-.905-4.517-1.222s-3.294-.476-5.33-.476c-2.671 0-5.07.418-7.198 1.257-2.127.837-3.793 2.026-4.99 3.564-1.2 1.54-1.8 3.304-1.8 5.297 0 2.987.802 5.399 2.41 7.231 1.608 1.835 4.108 3.408 7.503 4.72 2.626 1.087 4.62 1.969 5.975 2.65 1.359.677 2.435 1.459 3.226 2.34.792.883 1.19 1.938 1.19 3.16 0 1.676-.6 2.999-1.8 3.972-1.2.975-3.044 1.459-5.534 1.459-1.585 0-3.09-.26-4.517-.779-1.426-.521-2.34-1.121-2.75-1.8l-1.29-5.298h-4.685v8.762c1.63.678 3.632 1.313 6.009 1.9 2.376.587 4.743.882 7.097.882zm28.797-45.643h.077c1.626 0 2.865-.464 3.717-1.445.877-.98 1.29-2.22 1.29-3.768 0-1.239-.387-2.271-1.136-3.174-.774-.878-1.858-1.317-3.277-1.317-1.549 0-2.736.517-3.639 1.523-.878 1.032-1.316 2.271-1.316 3.716 0 1.265.387 2.323 1.187 3.175.8.877 1.832 1.29 3.097 1.29zm-2.916 44.905h7.587v-37.37l-1.626-1.212h-.129l-10.865 1.29v3.794l5.033 1.239v32.26zm34.484.738c2.717 0 5.389-.51 8.015-1.527 2.623-1.018 4.571-2.208 5.84-3.564l-1.427-3.057c-1.087.862-2.604 1.608-4.55 2.24-1.948.636-3.825.953-5.635.953-3.579 0-6.338-1.325-8.284-3.974-1.948-2.648-2.966-6.191-3.057-10.627H567c.315-1.45.474-3.554.474-6.316-.134-4.39-1.381-7.752-3.732-10.083-2.357-2.332-5.661-3.499-9.915-3.499-3.488 0-6.576.817-9.27 2.445-2.694 1.63-4.798 3.94-6.316 6.926-1.517 2.989-2.273 6.452-2.273 10.39 0 5.976 1.447 10.754 4.345 14.33 2.896 3.576 7.13 5.363 12.697 5.363zm-6.517-32.73c1.494-1.857 3.53-2.784 6.111-2.784 2.488 0 4.313.826 5.467 2.477 1.154 1.653 1.731 3.952 1.731 6.893 0 .68-.045 1.653-.136 2.921h-15.754c.227-4.484 1.086-7.652 2.58-9.506zm51.262-6.72c-2.168 0-4.181.517-6.04 1.524-1.857 1.032-3.38 2.167-4.541 3.432-1.187 1.265-1.962 2.271-2.375 3.045h-.155l.155-5.368v-1.29l-1.496-1.213h-.13l-9.652 1.213v3.871l4.826 1.239v32.26h7.536V224.07c3.02-2.22 6.4-3.33 10.117-3.33.903 0 1.703.104 2.4.285.697.206 1.239.464 1.6.722v-8.078a7.771 7.771 0 0 0-2.245-.335zm-262.386 84.424l2.4-19.433h-2.374l-2.658 21.653h11.123l.232-1.936h-8.774l.051-.284zm24.26-19.433a.72.72 0 0 0-.465.155c-.155.13-.284.284-.387.413l-5.884 8.878c-.155.284-.336.568-.465.852a11.25 11.25 0 0 0-.413.774l-.335.722-.155-.774c-.052-.258-.103-.542-.18-.8-.078-.258-.156-.542-.259-.826l-3.665-8.878a1.445 1.445 0 0 0-.258-.387.657.657 0 0 0-.413-.129h-2.193l5.703 12.981.026.052v.077l-1.084 8.543h2.374l1.084-8.646v-.051l.052-.052 8.826-12.904h-1.91zm17.936 1.42a8.373 8.373 0 0 0-1.368-.904 8.255 8.255 0 0 0-1.703-.567c-.62-.13-1.317-.181-2.065-.181-1.6 0-3.097.31-4.465.929a11.25 11.25 0 0 0-3.613 2.607c-1.006 1.11-1.832 2.477-2.4 4.026-.593 1.574-.877 3.329-.877 5.213 0 1.367.18 2.658.567 3.793.362 1.136.904 2.142 1.6 2.968a7.653 7.653 0 0 0 2.581 1.91c1.033.465 2.194.697 3.458.697 1.626 0 3.097-.284 4.31-.852a10.239 10.239 0 0 0 3.123-2.245l-.877-1.058-.078-.078s-.026-.025-.103-.025c-.026 0-.103.025-.232.129l-.207.154-.335.259c-.207.154-.465.335-.749.542-.284.232-.645.412-1.084.593a9.29 9.29 0 0 1-1.42.413c-.541.129-1.16.18-1.857.18-.93 0-1.755-.18-2.53-.515a5.538 5.538 0 0 1-1.986-1.549c-.542-.645-.981-1.445-1.29-2.4-.31-.93-.466-1.987-.466-3.149 0-1.6.233-3.07.671-4.361.44-1.29 1.085-2.4 1.859-3.33a8.25 8.25 0 0 1 2.787-2.115 8.334 8.334 0 0 1 3.458-.749c.93 0 1.703.13 2.297.336.568.206 1.058.438 1.42.696.387.259.67.49.877.697.155.155.31.233.413.233s.18 0 .232-.052a.588.588 0 0 0 .232-.207l.852-1.032a9.508 9.508 0 0 0-1.032-1.006zm13.626-6.71c-.052.025-.129.077-.206.103-.078.077-.155.155-.258.232l-2.89 2.71h1.573c.181 0 .31-.026.387-.077.13-.078.259-.155.44-.284l3.819-2.762h-2.607c-.103.026-.18.052-.258.078zm-11.046 26.943h12.104l.232-1.832h-9.729l.052-.284.929-7.717.025-.206h7.846l.232-1.781h-7.845l.025-.284.93-7.458.025-.233h9.704l.232-1.858h-12.103l-2.659 21.653zm16.491 0h12.13l.232-1.832h-9.73l.027-.284.955-7.717.025-.206h7.846l.232-1.781h-7.871l.026-.284.929-7.458.025-.233h9.704l.232-1.858H399.32l-2.684 21.653zm36.312-20.104c-.542-.49-1.213-.878-2.065-1.136-.826-.284-1.832-.413-2.968-.413h-5.884l-2.658 21.653h2.374l.98-8.078.027-.232h3.458c1.316 0 2.529-.207 3.561-.594 1.033-.387 1.91-.903 2.607-1.574a6.745 6.745 0 0 0 1.6-2.426c.361-.955.542-1.987.542-3.123 0-.851-.13-1.625-.387-2.322a4.809 4.809 0 0 0-1.187-1.755zm-1.188 6.606c-.232.697-.619 1.29-1.083 1.807-.465.49-1.084.903-1.781 1.187a6.869 6.869 0 0 1-2.4.413h-3.51l.026-.284 1.135-9.29.026-.233h3.458c.723 0 1.394.103 1.962.284.567.207 1.032.49 1.42.852.386.361.67.8.85 1.29.181.516.285 1.084.285 1.703 0 .826-.13 1.575-.388 2.271zm22.453-5.703c-.748-.852-1.652-1.497-2.71-1.987-1.058-.465-2.245-.697-3.561-.697-1.626 0-3.149.31-4.516.929a10.875 10.875 0 0 0-3.588 2.607c-1.006 1.11-1.832 2.477-2.4 4.026-.568 1.522-.852 3.251-.852 5.11 0 1.367.207 2.658.594 3.82.387 1.135.955 2.141 1.703 2.967s1.652 1.497 2.71 1.961c1.033.465 2.245.697 3.562.697 1.084 0 2.116-.129 3.097-.413a11.33 11.33 0 0 0 2.735-1.213c.826-.516 1.6-1.161 2.271-1.91a12.432 12.432 0 0 0 1.755-2.503c.465-.929.852-1.961 1.11-3.071.258-1.11.387-2.271.387-3.51 0-1.368-.206-2.658-.594-3.82a8.72 8.72 0 0 0-1.703-2.993zm-.774 11.252c-.413 1.316-1.007 2.452-1.755 3.38a7.604 7.604 0 0 1-2.736 2.143c-1.032.49-2.22.748-3.484.748-1.006 0-1.91-.18-2.684-.542a5.717 5.717 0 0 1-2.038-1.548c-.542-.645-.981-1.471-1.29-2.4-.285-.93-.44-1.987-.44-3.123 0-1.626.207-3.097.646-4.387.413-1.316 1.006-2.452 1.754-3.381a7.88 7.88 0 0 1 2.71-2.168 8.19 8.19 0 0 1 3.484-.748c.981 0 1.884.18 2.684.542.8.36 1.497.903 2.04 1.548.567.671.98 1.471 1.29 2.426.283.93.438 1.987.438 3.123 0 1.626-.206 3.097-.62 4.387zm8.439 5.73l2.4-19.434h-2.374l-2.684 21.653h11.149l.232-1.936h-8.775l.052-.284zm23.795-19.279a2.85 2.85 0 0 0-.388.413l-5.884 8.878c-.155.284-.335.568-.464.826-.155.284-.284.542-.413.8l-.336.722-.155-.774c-.051-.258-.103-.542-.18-.8-.078-.258-.155-.542-.258-.826l-3.665-8.878c-.077-.154-.155-.283-.284-.387-.077-.077-.206-.129-.387-.129h-2.194l5.704 12.981.026.052v.077l-1.084 8.543h2.374l1.084-8.646v-.051l.052-.052 8.826-12.904h-1.91a.72.72 0 0 0-.464.155zm19.975-.155a.724.724 0 0 0-.49.18c-.156.13-.285.259-.336.388l-7.562 15.82c-.18.336-.335.697-.49 1.084-.155.361-.284.774-.439 1.239l-.387 1.084-.13-1.136c-.05-.413-.102-.826-.18-1.239a37.914 37.914 0 0 0-.232-1.084l-3.716-15.82a.71.71 0 0 0-.207-.387.683.683 0 0 0-.438-.129h-1.962l5.445 21.653h2.272l10.761-21.653h-1.91zm8.955 0l-10.633 21.653h1.858c.18 0 .336-.052.49-.155a.965.965 0 0 0 .336-.387l2.53-5.42.077-.155h9.42l.025.207 1.213 5.42c.052.154.103.283.207.36a.738.738 0 0 0 .438.13h1.91l-5.316-21.653h-2.555zm3.716 13.962h-8.336l.18-.361 4.31-9.162c.13-.284.259-.568.414-.929.155-.335.31-.697.438-1.084l.362-.98.129 1.032c.051.413.129.774.18 1.084.078.335.155.645.207.903l2.039 9.187.077.31zm9.781 5.471l2.426-19.433h-2.374l-2.684 21.653h11.149l.232-1.936h-8.775l.026-.284zm12.026 2.22h12.104l.233-1.832h-9.73l.026-.284.955-7.717.026-.206h7.845l.232-1.781h-7.871l.052-.284.929-7.458.025-.233h9.704l.232-1.858h-12.103l-2.659 21.653zm31.305-5.73l-.077.62c-.026.206-.026.413-.052.67l-.077.827-.413-.723-9.55-16.955c-.128-.207-.231-.258-.257-.284-.052-.026-.155-.078-.439-.078h-1.265l-2.684 21.653h2.04l1.986-16.156c0-.077.026-.18.026-.284 0-.103.026-.206.026-.31.026-.103.026-.18.026-.283v-1.187l.49.851 9.549 16.956c.077.18.18.284.284.335.129.052.284.078.49.078h1.213l2.658-21.653h-2.038l-1.936 15.924zm7.123-14.013h6.555l-.026.31-2.374 19.433h2.348l2.4-19.51.026-.233h6.53l.258-1.91h-15.485l-.232 1.91z" fill="#814c92"/><path d="M367.294 190.476s-36-4.06-42.328 6.962c-6.327 11.02 27.225 30.667 23.436 40.324-3.789 9.657-27.432 18.981-34.758 19.314l19.98 8.991s31.968-11.142 26.64-33.376-29.284-23.17-23.966-31.527 30.996-10.688 30.996-10.688z" fill="#b9bf69"/><path d="M338.053 278.196h-.026l-.258 2.142.284-2.142zm73.655 0h-.026l-.026.258.052-.258zm-55.087 63.714l-5.386 9.456-10.304-5.87 5.386-9.456-4.124-2.348-12.518 21.982 4.123 2.349 5.472-9.609 10.305 5.87-5.471 9.609 4.12 2.343 12.517-21.981-4.12-2.345zm-26.12-1.348a6.977 6.977 0 0 0 1.964-1.257 7.638 7.638 0 0 0 1.522-1.91c.532-.933.857-1.878.98-2.836a5.77 5.77 0 0 0-.367-2.855c-.368-.948-.998-1.88-1.89-2.798-.893-.917-2.09-1.804-3.59-2.659l-6.703-3.818-12.518 21.982 4.088 2.329 4.891-8.59 1.747.996c.408.232.683.464.824.693.146.23.23.524.252.887l.613 9.67c.022.361.118.684.284.966.167.285.429.527.784.728l3.68 2.097-.882-11.253c-.063-.761-.27-1.437-.62-2.024.91.196 1.781.262 2.616.2a7.31 7.31 0 0 0 2.326-.548zm-5.219-3.031c-.683-.134-1.408-.42-2.18-.86l-2.553-1.454 4.154-7.296 2.616 1.49c1.51.859 2.462 1.796 2.858 2.813.393 1.017.272 2.082-.363 3.197-.318.557-.698 1.016-1.147 1.379s-.953.608-1.517.738c-.565.129-1.187.126-1.868-.007zm-18.085-23.768l-21.15 17.066 3.175 1.81c.346.196.69.266 1.039.208.348-.057.627-.178.842-.367l4.196-3.549 9.108 5.187-.915 5.419c-.048.322-.01.635.119.942.126.308.368.562.723.764l3.16 1.802 3.884-26.901-4.181-2.38zm-.456 6.655c-.106.524-.187.985-.252 1.376l-1.49 8.839-7.006-3.992 6.822-5.758c.323-.26.678-.573 1.069-.941.39-.37.806-.77 1.24-1.208-.151.598-.282 1.16-.383 1.684zm64.943 30.07l-21.151 17.064 3.174 1.81c.348.196.693.266 1.041.209.348-.058.628-.18.842-.366l4.196-3.55 9.106 5.186-.912 5.421c-.048.32-.01.635.118.943.126.305.368.56.72.76l3.164 1.803 3.883-26.9-4.18-2.38zm-.458 6.654c-.104.524-.184.984-.25 1.377l-1.49 8.836-7.008-3.992 6.825-5.756c.322-.26.678-.573 1.068-.941.39-.37.807-.77 1.24-1.207-.15.597-.282 1.16-.385 1.683zm-84.945-32.7a.884.884 0 0 0-.43-.589.936.936 0 0 0-.412-.123 1.63 1.63 0 0 0-.443.039c-.51.112-.993.177-1.452.19a6.232 6.232 0 0 1-1.366-.105 7.302 7.302 0 0 1-1.414-.422 12.852 12.852 0 0 1-1.562-.768 7.53 7.53 0 0 1-2.316-2.013 7.013 7.013 0 0 1-1.253-2.716c-.224-1-.237-2.081-.035-3.243.199-1.162.648-2.362 1.35-3.598.684-1.196 1.473-2.173 2.367-2.93.895-.76 1.845-1.296 2.848-1.611a7.304 7.304 0 0 1 3.115-.269c1.071.134 2.122.494 3.156 1.081.882.505 1.56 1.01 2.026 1.518.469.509.832.975 1.084 1.402s.453.8.59 1.122c.14.321.324.547.559.68.224.127.423.18.6.16.181-.017.345-.065.496-.14l2.45-1.122c-.38-1.356-1.033-2.644-1.958-3.861-.923-1.219-2.2-2.291-3.834-3.221-1.67-.953-3.357-1.545-5.053-1.782-1.701-.237-3.33-.139-4.887.29-1.56.426-3.004 1.172-4.332 2.233-1.33 1.06-2.465 2.417-3.407 4.069-.928 1.631-1.535 3.277-1.833 4.936-.292 1.658-.262 3.246.094 4.765.357 1.518 1.03 2.926 2.016 4.226s2.29 2.413 3.924 3.343c1.825 1.038 3.553 1.635 5.192 1.79a10.184 10.184 0 0 0 4.738-.666l-.618-2.665zm124.155 48.113c-.355-.203-.754-.18-1.187.068l-8.69 4.614c-.156.089-.3.177-.433.268a7.76 7.76 0 0 0-.386.293l-.406-10.92a1.242 1.242 0 0 0-.128-.568c-.086-.147-.267-.303-.552-.465l-4.076-2.32.93 14.663-13.753 7.147 3.834 2.183c.244.136.486.179.733.123.245-.054.474-.136.683-.244l9.31-5.004c.103-.062.212-.134.323-.21.11-.079.221-.167.332-.264l.295 11.322c.01.245.056.487.141.723s.267.434.542.59l4.088 2.329-.746-15.623 13.068-6.472-3.922-2.233zm-23.166-13.193l-12.518 21.983 4.103 2.337 12.518-21.983-4.103-2.337zm-90.283-219.594c.086-.074.163-.175.231-.305a927.868 927.868 0 0 0 1.688-3.356c-.652.185-1.304.368-1.956.551-.238.067-.406.153-.506.259a1 1 0 0 0-.22.436l-.8 2.922 1.196-.333a.961.961 0 0 0 .367-.174zm-2.169 10.355a5.55 5.55 0 0 0 1.772 1.407c.66.33 1.375.52 2.14.573a6.914 6.914 0 0 0 2.35-.26c.417-.117.828-.269 1.23-.453a7.293 7.293 0 0 0 1.133-.641c.353-.242.663-.513.941-.813.275-.298.49-.618.638-.961l-.815-.492a.526.526 0 0 0-.451-.062c-.13.037-.264.135-.402.289a6.398 6.398 0 0 1-1.368 1.14c-.332.206-.75.384-1.26.527a4.597 4.597 0 0 1-1.575.179c-.5-.038-.968-.17-1.408-.404a3.99 3.99 0 0 1-1.187-.995c-.355-.43-.661-.968-.91-1.614 2.564-.703 5.119-1.42 7.665-2.15.189-.054.3-.14.333-.252.034-.114-.003-.313-.108-.596-.269-.73-.625-1.344-1.07-1.846a4.782 4.782 0 0 0-1.517-1.156 4.865 4.865 0 0 0-1.823-.466 5.944 5.944 0 0 0-2.008.222c-.83.231-1.531.568-2.103 1.012-.573.445-1.012.958-1.309 1.542a4.563 4.563 0 0 0-.49 1.911 5.72 5.72 0 0 0 .343 2.114c.319.888.736 1.637 1.26 2.245zm.791-6.111c.378-.659 1.055-1.125 2.032-1.397a3.595 3.595 0 0 1 1.3-.135c.408.038.783.148 1.124.33.342.184.638.431.894.743.255.311.462.675.615 1.093a705.96 705.96 0 0 1-6.262 1.75c-.183-.93-.084-1.726.297-2.384zm11.166 2.842a5.63 5.63 0 0 0 1.695 1.338 5.217 5.217 0 0 0 1.994.55 5.872 5.872 0 0 0 2.138-.24 7.192 7.192 0 0 0 2.219-1.091c.648-.478 1.116-1.066 1.397-1.76l-.817-.48c-.123-.089-.273-.108-.448-.055a.635.635 0 0 0-.344.28 6.284 6.284 0 0 1-.384.503 3.685 3.685 0 0 1-.66.587c-.273.199-.658.372-1.149.52a3.827 3.827 0 0 1-1.483.157 3.282 3.282 0 0 1-1.33-.436c-.414-.242-.786-.581-1.126-1.015-.344-.432-.625-.962-.857-1.579-.223-.592-.352-1.15-.383-1.671-.032-.52.033-.992.194-1.414.165-.42.425-.785.785-1.09.361-.303.817-.539 1.37-.703.42-.125.785-.189 1.11-.192.315-.002.597.017.835.055.24.042.442.085.604.13a.76.76 0 0 0 .41.015.457.457 0 0 0 .235-.14.75.75 0 0 0 .116-.225l.279-.805a5.828 5.828 0 0 0-1.993-.49c-.696-.046-1.442.047-2.23.283-.858.255-1.57.611-2.14 1.07-.57.46-.993.988-1.275 1.588a4.532 4.532 0 0 0-.416 1.975c0 .717.145 1.457.428 2.217.311.834.718 1.543 1.226 2.118zm14.09-1.04c-.988-2.494-1.966-4.99-2.935-7.487.266-.57.602-1.06 1.008-1.474a3.6 3.6 0 0 1 1.493-.9c.797-.251 1.476-.228 2.029.071.553.302.984.835 1.288 1.602.853 2.153 1.713 4.304 2.58 6.453.665-.213 1.328-.427 1.991-.643-.873-2.147-1.738-4.297-2.596-6.447a5.502 5.502 0 0 0-.87-1.49 3.961 3.961 0 0 0-1.192-.988 3.603 3.603 0 0 0-1.483-.403c-.54-.034-1.114.045-1.726.24-.76.24-1.379.591-1.858 1.053-.476.46-.868.996-1.172 1.61-.77-1.995-1.534-3.992-2.292-5.99-.656.203-1.312.406-1.97.608a1058.47 1058.47 0 0 0 5.702 14.807 669.39 669.39 0 0 0 2.004-.623zm7.791-11.416c.123.03.252.023.386-.021a.915.915 0 0 0 .444-.334 18.4 18.4 0 0 1 .47-.573c.184-.216.417-.433.699-.652.279-.219.658-.406 1.136-.567.725-.243 1.353-.225 1.888.055.533.279.963.812 1.288 1.599.11.263.218.527.327.79-1.263.43-2.295.88-3.094 1.356-.8.477-1.414.946-1.84 1.414-.425.467-.687.924-.778 1.375-.096.45-.059.877.103 1.276.189.46.432.833.737 1.116.306.28.642.486 1.016.614.37.125.77.181 1.202.163a4.686 4.686 0 0 0 1.296-.243c.43-.144.802-.309 1.13-.495a4.756 4.756 0 0 0 1.558-1.405c.199-.284.398-.594.595-.934l.61.859c.11.16.236.245.375.257.142.014.306-.013.497-.078l.874-.3c-.905-2.144-1.803-4.289-2.693-6.435a5.21 5.21 0 0 0-.893-1.464 3.742 3.742 0 0 0-1.24-.95 3.929 3.929 0 0 0-1.531-.366c-.556-.02-1.147.072-1.767.28-.862.289-1.598.685-2.2 1.188a6.286 6.286 0 0 0-1.508 1.865l.582.454a.9.9 0 0 0 .331.156zm7.965 3.5a5.564 5.564 0 0 1-.444.797c-.161.245-.346.468-.554.669a3.8 3.8 0 0 1-.702.545c-.261.16-.565.298-.913.415-.258.086-.513.139-.755.155a1.806 1.806 0 0 1-.691-.077 1.578 1.578 0 0 1-.584-.348 1.75 1.75 0 0 1-.428-.643 1.237 1.237 0 0 1-.042-.852c.09-.288.3-.58.63-.881.327-.3.79-.608 1.38-.923.59-.317 1.338-.628 2.24-.935l.863 2.077zm7.893.052a1063.99 1063.99 0 0 1-3.14-7.388c.241-.578.56-1.08.95-1.506.389-.427.87-.742 1.442-.947.78-.277 1.451-.276 2.01.006.554.284.998.804 1.325 1.56.911 2.125 1.83 4.247 2.758 6.367.648-.234 1.296-.47 1.944-.706-.932-2.118-1.857-4.238-2.774-6.36a5.472 5.472 0 0 0-.905-1.463 3.967 3.967 0 0 0-1.21-.949c-.45-.22-.942-.34-1.478-.356-.535-.016-1.099.081-1.7.296-.773.276-1.39.665-1.855 1.172a6.033 6.033 0 0 0-1.115 1.735l-.608-1.039c-.175-.22-.4-.28-.675-.184l-1.155.403a1049.22 1049.22 0 0 0 4.225 10.047c.655-.229 1.308-.458 1.96-.688zm7.87-9.02a3.817 3.817 0 0 0 1.752.625 2.8 2.8 0 0 0-.696 1.185c-.051.194-.074.38-.063.555.011.175.046.335.11.478.162.367.385.627.665.779.285.148.609.232.978.247-.51.427-.864.878-1.053 1.35-.195.47-.182.953.036 1.445.156.348.405.643.747.889.339.245.766.413 1.276.507.51.094 1.1.101 1.774.018.672-.082 1.413-.277 2.217-.58.808-.304 1.488-.674 2.036-1.104.553-.431.976-.888 1.276-1.371.295-.483.47-.971.518-1.463a2.639 2.639 0 0 0-.222-1.385c-.21-.46-.487-.796-.826-1.007a2.522 2.522 0 0 0-1.143-.364c-.418-.034-.866 0-1.338.093-.47.094-.933.228-1.39.4l-1.348.509c-.44.165-.845.286-1.217.362-.37.076-.69.09-.955.043a.715.715 0 0 1-.559-.437.784.784 0 0 1-.024-.524c.05-.2.161-.411.333-.633a6.458 6.458 0 0 0 1.52-.375 5.73 5.73 0 0 0 1.545-.847c.434-.34.766-.72 1.001-1.138.237-.42.37-.867.396-1.338.027-.476-.07-.952-.286-1.437a3.292 3.292 0 0 0-.998-1.283l1.159-.627c.274-.174.36-.369.265-.585l-.29-.646c-.978.376-1.958.75-2.938 1.122a4.95 4.95 0 0 0-1.301.004c-.45.061-.915.18-1.385.357a5.828 5.828 0 0 0-1.558.846c-.438.337-.78.714-1.027 1.13a3.03 3.03 0 0 0-.418 1.33c-.03.474.06.952.27 1.439.266.612.652 1.087 1.162 1.431zm3.31 4.751c.143-.351.38-.693.715-1.024a4.91 4.91 0 0 0 1.176-.288l1.148-.431c.376-.141.742-.257 1.098-.346.359-.088.687-.141.984-.157.297-.015.556.024.778.12.22.095.388.268.503.522.122.266.156.537.108.815-.055.278-.184.55-.4.82-.21.27-.503.526-.876.768a7.077 7.077 0 0 1-1.345.662 7.39 7.39 0 0 1-1.454.403 4.13 4.13 0 0 1-1.135.034c-.325-.043-.597-.14-.808-.286a1.28 1.28 0 0 1-.47-.555 1.274 1.274 0 0 1-.021-1.057zm-2.706-8.471c.247-.513.755-.91 1.521-1.197.771-.29 1.438-.334 2.002-.126.562.209.978.615 1.248 1.226.131.293.203.582.212.866.007.284-.045.55-.17.803-.121.253-.31.485-.563.695-.257.212-.576.39-.963.536a3.454 3.454 0 0 1-1.081.233 2.407 2.407 0 0 1-.929-.136 2.08 2.08 0 0 1-.737-.462 2.399 2.399 0 0 1-.512-.755c-.267-.612-.272-1.172-.028-1.683zm11.107 2.11a5.46 5.46 0 0 0 1.84 1.236 5.335 5.335 0 0 0 2.112.371 6.505 6.505 0 0 0 2.24-.477c.39-.155.77-.343 1.142-.566.373-.22.714-.469 1.031-.743.317-.272.593-.57.83-.895.235-.323.413-.662.525-1.015l-.83-.416a.493.493 0 0 0-.444-.018c-.12.049-.238.156-.357.325-.12.165-.278.36-.474.575a5.826 5.826 0 0 1-.74.684c-.296.238-.684.452-1.163.643a4.325 4.325 0 0 1-1.5.323 3.3 3.3 0 0 1-1.388-.27 3.853 3.853 0 0 1-1.238-.882c-.382-.394-.728-.9-1.027-1.522a684.886 684.886 0 0 0 7.179-2.851c.176-.072.275-.166.296-.282.02-.116-.032-.31-.16-.584-.327-.698-.728-1.28-1.205-1.737a4.565 4.565 0 0 0-1.565-1.011 4.663 4.663 0 0 0-1.798-.296 5.62 5.62 0 0 0-1.914.41c-.775.306-1.419.707-1.93 1.202a4.679 4.679 0 0 0-1.116 1.656 4.698 4.698 0 0 0-.292 1.948c.04.691.215 1.382.528 2.073.386.855.86 1.562 1.418 2.12zm.192-6.16c.303-.69.91-1.215 1.828-1.577.428-.17.841-.255 1.238-.256a2.766 2.766 0 0 1 2.043.88c.273.286.505.631.692 1.033a684.52 684.52 0 0 1-5.864 2.323c-.265-.91-.238-1.71.063-2.402zm14.626 3.63c-1-2.082-1.994-4.166-2.98-6.251-.02-.789.106-1.447.38-1.978.273-.53.734-.93 1.381-1.202.365-.152.664-.239.893-.263.234-.024.398-.055.493-.096.17-.071.24-.197.208-.378l-.37-1.39a3.297 3.297 0 0 0-1.617.26c-.72.3-1.253.753-1.607 1.36-.354.604-.553 1.327-.594 2.163a893.85 893.85 0 0 1-.846-1.483c-.11-.161-.218-.264-.328-.304-.113-.038-.268-.017-.471.066l-1.072.44c1.527 3.284 3.074 6.562 4.638 9.836l1.892-.78zm4.448-2.713a1.329 1.329 0 0 0 .94.353c.175-.005.359-.046.54-.123l.137-.058c.06.23.089.459.087.685a3.854 3.854 0 0 1-.063.643 4.378 4.378 0 0 1-.13.55c-.051.166-.094.3-.128.4-.056.132-.062.24-.021.323.05.103.14.173.27.212l.455.143c.198-.378.35-.764.459-1.16.108-.396.169-.782.186-1.158a4.909 4.909 0 0 0-.064-1.092 3.612 3.612 0 0 0-.308-.96 1.896 1.896 0 0 0-.344-.497 1.541 1.541 0 0 0-.46-.33 1.308 1.308 0 0 0-.555-.12 1.56 1.56 0 0 0-.615.132 1.516 1.516 0 0 0-.463.302c-.124.125-.22.257-.278.403a1.097 1.097 0 0 0 .031.913c.085.173.192.32.324.44zm13.964-5.217c-.214-3.87-.432-7.739-.652-11.608l-1.42.645a.58.58 0 0 0-.365.599l.46 7.445c.019.273.055.539.11.796.053.257.11.51.168.757-.163-.201-.329-.403-.499-.61a5.882 5.882 0 0 0-.577-.588 672.997 672.997 0 0 1-5.776-5.08.692.692 0 0 0-.742-.105c-.503.22-1.005.44-1.508.658a672.155 672.155 0 0 0 9.126 7.84l1.675-.749zm-.33-14.924c.14.112.297.197.475.254.172.056.354.081.537.077.186-.008.365-.05.54-.133.176-.08.328-.188.45-.324.125-.136.216-.287.28-.453.06-.164.092-.336.09-.513 0-.176-.045-.346-.13-.513a1.276 1.276 0 0 0-.344-.422 1.55 1.55 0 0 0-1.025-.334 1.43 1.43 0 0 0-.543.134 1.35 1.35 0 0 0-.8 1.29 1.277 1.277 0 0 0 .47.937zm6.528 12.108a723.82 723.82 0 0 0 1.836-.847c-1.68-3.21-3.34-6.424-4.983-9.644-.604.28-1.208.557-1.813.835a1042.16 1042.16 0 0 0 4.96 9.656zm9.625-4.522c-.306-3.863-.614-7.726-.926-11.589l-1.394.676a.589.589 0 0 0-.285.262.597.597 0 0 0-.063.345c.213 2.478.425 4.955.636 7.433.028.272.069.538.128.792.06.258.123.509.185.755a132.08 132.08 0 0 0-.509-.6 5.932 5.932 0 0 0-.586-.573 675.69 675.69 0 0 1-5.849-4.95.711.711 0 0 0-.331-.15.655.655 0 0 0-.41.061l-1.48.692a667.711 667.711 0 0 0 9.24 7.631c.548-.26 1.097-.523 1.644-.785zm4.618-11.799c.234-.546.658-.972 1.278-1.28.347-.173.632-.279.856-.316.225-.037.383-.079.476-.126.158-.078.222-.21.18-.388l-.451-1.364a3.161 3.161 0 0 0-.762.065 3.267 3.267 0 0 0-.8.287c-.685.342-1.18.825-1.489 1.451-.305.625-.454 1.357-.442 2.195a773.75 773.75 0 0 1-.922-1.43c-.116-.156-.23-.251-.34-.284-.11-.033-.264-.002-.454.093l-1.02.5c1.698 3.188 3.415 6.369 5.15 9.544.6-.295 1.2-.59 1.799-.887-1.11-2.02-2.211-4.041-3.306-6.066-.068-.784.013-1.448.247-1.994zm15.415-.92c-.113.06-.218.177-.318.355-.1.176-.236.381-.403.613a5.92 5.92 0 0 1-.653.744c-.267.262-.623.51-1.066.738-.48.248-.953.398-1.42.45a3.143 3.143 0 0 1-1.371-.15 3.775 3.775 0 0 1-1.274-.772c-.406-.36-.785-.836-1.13-1.43a668.73 668.73 0 0 0 6.677-3.448c.163-.087.248-.188.26-.306.01-.119-.058-.307-.207-.568-.38-.67-.82-1.212-1.32-1.628a4.474 4.474 0 0 0-1.608-.873 4.341 4.341 0 0 0-1.764-.142 5.284 5.284 0 0 0-1.81.569c-.723.372-1.307.825-1.754 1.363a4.582 4.582 0 0 0-.928 1.743 4.85 4.85 0 0 0-.107 1.966c.102.684.335 1.357.698 2.02.453.817.974 1.481 1.565 1.988.59.51 1.218.868 1.887 1.074.67.208 1.362.27 2.078.19a6.12 6.12 0 0 0 2.12-.665 7.36 7.36 0 0 0 1.052-.66c.341-.252.65-.528.93-.828.28-.298.519-.618.72-.963.198-.34.338-.693.414-1.055l-.84-.343a.463.463 0 0 0-.428.019zm-8.15-.52c-.34-.884-.388-1.683-.157-2.398.23-.713.77-1.29 1.62-1.726.4-.207.79-.325 1.173-.36.383-.033.749.01 1.096.13.349.12.667.31.958.573.292.261.548.585.765.97-1.812.943-3.63 1.88-5.455 2.81zm13.92-.959a1.927 1.927 0 0 0-.378-.47 1.52 1.52 0 0 0-.472-.292 1.21 1.21 0 0 0-.55-.078 1.432 1.432 0 0 0-.583.177c-.17.09-.313.202-.425.335a1.202 1.202 0 0 0-.237.424 1.086 1.086 0 0 0-.045.457c.015.159.065.306.149.45.094.166.211.304.347.412a1.261 1.261 0 0 0 .946.282c.167-.018.34-.072.51-.164l.13-.069c.077.224.124.452.138.677a3.91 3.91 0 0 1-.004.645c-.02.205-.048.391-.084.56-.037.17-.066.304-.094.406-.042.136-.04.243.008.323.056.1.148.163.28.192l.45.11c.165-.392.277-.79.352-1.19.073-.403.104-.795.09-1.17a5.135 5.135 0 0 0-.152-1.084 3.75 3.75 0 0 0-.377-.933zm9.184-13.684a3.612 3.612 0 0 0-1.311-.745 3.508 3.508 0 0 0-1.488-.123c-.523.065-1.058.249-1.6.55-.756.419-1.374.925-1.852 1.512a6.252 6.252 0 0 0-1.1 2.076l.62.356c.1.057.21.092.331.103a.602.602 0 0 0 .357-.08.874.874 0 0 0 .36-.4c.094-.184.207-.397.344-.637.135-.241.315-.493.541-.753.227-.257.55-.502.965-.734.637-.352 1.224-.432 1.77-.24.543.192 1.031.652 1.463 1.378l.435.729c-1.106.619-1.993 1.224-2.66 1.817-.668.594-1.16 1.153-1.482 1.68-.318.526-.486 1.018-.499 1.477-.01.46.09.874.308 1.243.252.425.541.753.873.985.328.232.677.38 1.048.447.367.068.749.06 1.143-.022a4.221 4.221 0 0 0 1.17-.444c.38-.208.702-.429.975-.663.27-.231.506-.481.705-.752.202-.273.373-.563.514-.874.141-.312.274-.649.4-1.015l.713.753c.13.14.259.204.393.196a1.1 1.1 0 0 0 .45-.155l.766-.431c-1.2-1.974-2.391-3.95-3.576-5.93a5.327 5.327 0 0 0-1.076-1.304zm1.321 6.8a4.227 4.227 0 0 1-.405.746c-.158.23-.348.447-.567.644a4.058 4.058 0 0 1-.781.552 2.756 2.756 0 0 1-.68.272 1.633 1.633 0 0 1-.658.03 1.491 1.491 0 0 1-.599-.252 1.763 1.763 0 0 1-.507-.568 1.319 1.319 0 0 1-.178-.835c.036-.296.181-.619.438-.966.26-.345.639-.722 1.138-1.125.497-.404 1.142-.825 1.933-1.27.383.64.765 1.278 1.15 1.915-.077.306-.171.59-.284.856zm6.854-14.058a.585.585 0 0 0-.294.628l1.167 7.368c.044.27.106.53.181.782.079.251.158.497.238.738l-.542-.562a5.512 5.512 0 0 0-.612-.535 642.928 642.928 0 0 1-6.065-4.544.687.687 0 0 0-.334-.128.608.608 0 0 0-.393.088l-1.391.789A649.58 649.58 0 0 0 457.831 86l1.542-.891c-.582-3.832-1.167-7.663-1.754-11.493l-1.31.766zm10.784-3.832a3.54 3.54 0 0 0-1.322-.706 3.44 3.44 0 0 0-1.475-.081c-.517.08-1.037.278-1.569.594-.733.441-1.329.964-1.782 1.565-.459.603-.796 1.303-1.02 2.104l.621.34a.84.84 0 0 0 .332.093.6.6 0 0 0 .353-.091.876.876 0 0 0 .342-.408c.088-.188.191-.403.317-.647.127-.245.297-.502.516-.768.214-.264.525-.519.931-.762.618-.37 1.198-.466 1.743-.29.544.177 1.042.622 1.495 1.335l.45.717c-1.072.648-1.93 1.28-2.573 1.892-.641.612-1.11 1.184-1.412 1.72-.3.535-.45 1.03-.448 1.49.003.46.118.871.346 1.233.26.418.56.738.894.96.335.221.683.36 1.05.417.367.057.745.038 1.135-.057a4.078 4.078 0 0 0 1.142-.475c.366-.22.68-.45.942-.69.262-.238.487-.496.676-.771.193-.28.35-.573.48-.888.13-.316.25-.657.364-1.026l.73.732c.13.137.264.197.395.185.13-.014.278-.068.44-.168l.745-.452c-1.25-1.938-2.494-3.88-3.73-5.823a5.375 5.375 0 0 0-1.108-1.274zm1.527 6.756a3.97 3.97 0 0 1-.38.759 3.58 3.58 0 0 1-.538.66 3.983 3.983 0 0 1-.756.573c-.221.133-.443.23-.665.291-.22.062-.44.078-.647.049a1.48 1.48 0 0 1-.603-.235 1.777 1.777 0 0 1-.519-.554 1.323 1.323 0 0 1-.204-.828c.026-.297.16-.624.405-.978.243-.354.605-.74 1.085-1.156.481-.418 1.107-.858 1.875-1.323.4.627.799 1.254 1.2 1.88a5.89 5.89 0 0 1-.253.862zm8.78-13.127a3.728 3.728 0 0 0-1.297-.71 3.141 3.141 0 0 0-1.425-.084c-.495.08-.996.28-1.502.597-.656.41-1.145.904-1.476 1.485a6.035 6.035 0 0 0-.68 1.902c-.255-.302-.508-.605-.762-.908-.204-.184-.42-.203-.657-.058l-.98.603c1.932 3.037 3.88 6.066 5.847 9.088.556-.343 1.111-.686 1.665-1.03a1025.308 1025.308 0 0 1-4.331-6.675c.107-.611.302-1.16.575-1.648a3.29 3.29 0 0 1 1.141-1.19c.662-.413 1.278-.533 1.844-.357.566.177 1.076.607 1.522 1.29 1.255 1.919 2.516 3.833 3.785 5.745l1.65-1.043c-1.274-1.91-2.54-3.82-3.799-5.736a5.57 5.57 0 0 0-1.12-1.271zm12.154-.51a.597.597 0 0 0-.233.35 5.497 5.497 0 0 1-.211.578c-.096.225-.24.466-.432.723-.194.258-.492.516-.888.775a3.243 3.243 0 0 1-1.272.504 2.809 2.809 0 0 1-1.289-.108c-.427-.135-.84-.375-1.253-.714-.412-.339-.8-.782-1.162-1.324a6.255 6.255 0 0 1-.76-1.526 3.663 3.663 0 0 1-.188-1.414c.039-.445.176-.858.42-1.24.239-.378.583-.714 1.029-1.003.34-.22.65-.369.932-.449.28-.077.532-.124.753-.143.222-.017.413-.023.564-.018a.654.654 0 0 0 .37-.082.428.428 0 0 0 .173-.19.93.93 0 0 0 .043-.246l.044-.845a4.992 4.992 0 0 0-1.889-.002c-.628.118-1.262.386-1.9.8-.692.45-1.233.965-1.62 1.543a4.494 4.494 0 0 0-.72 1.838 4.915 4.915 0 0 0 .132 2.009 6.93 6.93 0 0 0 .941 2.042c.487.733 1.028 1.32 1.623 1.758.593.44 1.207.736 1.837.893a4.485 4.485 0 0 0 1.906.059 4.965 4.965 0 0 0 1.832-.74 6.433 6.433 0 0 0 1.686-1.578 4.057 4.057 0 0 0 .789-2.032l-.844-.272c-.135-.056-.274-.038-.413.053zm8.965-5.998c-.1.07-.189.197-.265.382a6.898 6.898 0 0 1-.32.65c-.138.245-.32.513-.546.8-.23.287-.54.566-.946.837a3.805 3.805 0 0 1-1.316.584 2.94 2.94 0 0 1-1.334-.018 3.667 3.667 0 0 1-1.313-.643c-.429-.319-.847-.754-1.241-1.31a647.54 647.54 0 0 0 6.042-4.071c.151-.101.222-.212.218-.328-.003-.12-.091-.3-.262-.544-.439-.628-.921-1.126-1.45-1.49a4.378 4.378 0 0 0-1.639-.714 4.133 4.133 0 0 0-1.714.031 4.906 4.906 0 0 0-1.678.74c-.653.44-1.168.947-1.54 1.523a4.642 4.642 0 0 0-.7 1.822 4.909 4.909 0 0 0 .113 1.963c.173.67.47 1.315.894 1.938.523.769 1.096 1.377 1.722 1.825.623.448 1.268.743 1.933.884a4.72 4.72 0 0 0 2.017-.013 5.736 5.736 0 0 0 1.969-.865 7.09 7.09 0 0 0 1.746-1.67 5.3 5.3 0 0 0 .588-1.025c.151-.357.248-.72.28-1.089l-.846-.258a.442.442 0 0 0-.412.059zm-8.309-2.096c.144-.731.6-1.355 1.368-1.872.363-.242.725-.4 1.09-.47.364-.071.721-.065 1.068.023.348.085.676.244.984.477.31.231.591.527.843.889a641.866 641.866 0 0 1-4.94 3.32c-.423-.845-.557-1.635-.413-2.367zm10.197-4.638c-.173-.769-.187-1.437-.04-2.005.146-.568.49-1.042 1.036-1.423.306-.213.562-.352.77-.417.208-.063.353-.124.433-.179.141-.1.183-.236.118-.409l-.617-1.295c-.24.022-.476.073-.715.158a2.995 2.995 0 0 0-.72.382c-.603.421-1.008.961-1.213 1.618-.204.654-.245 1.397-.119 2.225l-1.07-1.303c-.133-.14-.255-.221-.363-.24-.109-.02-.251.03-.419.146l-.902.622a1014.01 1014.01 0 0 0 6.212 8.818c.53-.366 1.06-.732 1.589-1.1a1033.2 1033.2 0 0 1-3.98-5.598z" fill="#fff"/></svg>